<svg xmlns="http://www.w3.org/2000/svg" xmlns:xlink="http://www.w3.org/1999/xlink" version="1.1" width="1000" height="1000" viewBox="0 0 1000 1000" xml:space="preserve">
<desc>Created with Fabric.js 3.5.0</desc>
<defs>
</defs>
<g transform="matrix(0 -7.1023 -7.1023 0 500.0017 500.0017)" id="964255">
<g style="" vector-effect="non-scaling-stroke">
		<g transform="matrix(1 0 0 1 -33.35 4.1835)">
<path style="stroke: none; stroke-width: 1; stroke-dasharray: none; stroke-linecap: butt; stroke-dashoffset: 0; stroke-linejoin: miter; stroke-miterlimit: 4; is-custom-font: none; font-file-url: none; fill: rgb(191,235,146); fill-rule: nonzero; opacity: 1;" transform=" translate(-30.65, -68.1836)" d="M 58.34 54.22 C 58.34 52.84 58.11 52.1 54.03 51.45 C 50.9 50.95 11.65 52.87 9.29 53.02 C 4.73 53.32 2.96 55.17 3 58.53 C 3.03 61.46 6.39 63.97 7.19 65.18 C 7.99 66.39 7.93 67.52 6.94 68.79 C 6.18 69.77 2.96 71.11 2.96 74.8 C 2.96 79.33 5.92 81.61 9.29 81.91 C 14.59 82.37 38.86 82.79 45.1 83.23 C 48.11 83.44 49.95 84.78 52.96 85 C 54.34 85 58.34 81.67 58.34 80.29 C 58.34 78.92 58.34 55.6 58.34 54.22 Z" stroke-linecap="round"/>
</g>
		<g transform="matrix(1 0 0 1 14.8819 0.0353)">
<path style="stroke: none; stroke-width: 1; stroke-dasharray: none; stroke-linecap: butt; stroke-dashoffset: 0; stroke-linejoin: miter; stroke-miterlimit: 4; is-custom-font: none; font-file-url: none; fill: rgb(228,255,149); fill-rule: nonzero; opacity: 1;" transform=" translate(-78.8818, -64.0353)" d="M 123.05 62.41 C 123.05 33.15 105.33 31.71 105.33 31.71 C 105.34 31.43 106.26 14.41 89.33 10.74 C 75.55 7.75 66.76 13.29 62.36 18.27 C 54.11 13.96 42.26 15.26 36.81 24.3 C 33.94 29.07 34.3 36.39 36.19 41.62 C 38.09 46.89 41.86 50.15 45.59 54.32 C 56.34 66.36 52.52 70.95 46.96 78.41 C 43.52 83.02 35.92 96.82 47.6 109.6 C 55.82 118.59 73.88 113.56 73.88 113.56 C 75.21 113.96 87.06 123.15 100.23 114.43 C 114.29 105.12 108.8 87.66 108.8 87.66 C 108.8 87.66 123.05 80.59 123.05 62.41 Z" stroke-linecap="round"/>
</g>
		<g transform="matrix(1 0 0 1 -11.2472 1.9138)">
<path style="stroke: none; stroke-width: 1; stroke-dasharray: none; stroke-linecap: butt; stroke-dashoffset: 0; stroke-linejoin: miter; stroke-miterlimit: 4; is-custom-font: none; font-file-url: none; fill: rgb(191,235,146); fill-rule: nonzero; opacity: 1;" transform=" translate(-52.7528, -65.9138)" d="M 70.17 86.73 C 70.96 86.5 71 85.4 70.21 85.14 C 66.71 84 60.39 81.32 56.65 75.98 C 53.02 70.8 50.83 58.47 58.34 52.91 C 69.38 44.72 67.61 35.42 64.83 31.97 C 61.93 28.37 54.17 29.07 54.29 35.36 C 54.31 36.52 54.65 37.66 55.14 38.71 C 56.42 41.47 58.41 45.61 55.64 48.32 C 54.32 49.61 52.39 50 50.58 49.65 C 46.3 48.82 43.05 45.48 41.34 41.6 C 36.4 30.37 40.59 23.6 46.48 17.74 C 46.79 17.43 46.47 16.9 46.05 17.04 C 38.68 19.45 35.04 25.46 34.75 32.18 C 34.54 37.12 35.53 42.08 38.15 46.27 C 40.17 49.5 43.57 52.28 45.83 55.34 C 47.59 57.72 51.14 60.66 50.58 63.93 C 50.04 67.09 47.65 69.88 45.75 72.3 C 40.34 79.19 37.55 88.51 39.77 96.98 C 43.88 112.66 56.09 114.6 60.13 114.81 C 60.45 114.83 60.56 114.37 60.27 114.26 C 56.15 112.7 53.72 111.09 52.75 110.3 C 45.13 104.05 43.34 93.22 46.91 84.01 C 47.17 83.33 47.59 82.71 48.17 82.26 C 50.67 80.32 52.52 84.03 56.73 86.12 C 61.6 88.53 67.06 87.62 70.17 86.73 Z" stroke-linecap="round"/>
</g>
		<g transform="matrix(1 0 0 1 36.4306 -36.998)">
<path style="stroke: none; stroke-width: 1; stroke-dasharray: none; stroke-linecap: butt; stroke-dashoffset: 0; stroke-linejoin: miter; stroke-miterlimit: 4; is-custom-font: none; font-file-url: none; fill: rgb(191,235,146); fill-rule: nonzero; opacity: 1;" transform=" translate(-100.4307, -27.0019)" d="M 103.55 35.62 C 106.6 32.64 105.04 22.14 100.58 17.25 C 99.32 15.87 97.02 16.93 97.19 18.79 C 97.46 21.91 97.99 26.46 96.17 31.15 C 95.12 33.86 96.06 36.19 97.8 36.99 C 98.65 37.38 101.06 38.06 103.55 35.62 Z" stroke-linecap="round"/>
</g>
		<g transform="matrix(1 0 0 1 47.0655 11.5665)">
<path style="stroke: none; stroke-width: 1; stroke-dasharray: none; stroke-linecap: butt; stroke-dashoffset: 0; stroke-linejoin: miter; stroke-miterlimit: 4; is-custom-font: none; font-file-url: none; fill: rgb(185,232,97); fill-rule: nonzero; opacity: 1;" transform=" translate(-111.0655, -75.5665)" d="M 122.24 68.5 C 122.67 66.63 122.91 64.88 123.02 63.29 C 123.07 62.53 122.01 62.32 121.78 63.04 C 120.48 67.2 117.65 72.64 111.51 75.9 C 109.5 76.97 107.28 77.61 105.24 78.62 C 102.61 79.93 99.05 81.19 99.11 84.7 C 99.2 89.53 106.85 89.92 112.63 85.18 C 117.82 80.91 120.89 74.36 122.24 68.5 Z" stroke-linecap="round"/>
</g>
		<g transform="matrix(1 0 0 1 23.0844 48.3847)">
<path style="stroke: none; stroke-width: 1; stroke-dasharray: none; stroke-linecap: butt; stroke-dashoffset: 0; stroke-linejoin: miter; stroke-miterlimit: 4; is-custom-font: none; font-file-url: none; fill: rgb(185,232,97); fill-rule: nonzero; opacity: 1;" transform=" translate(-87.0844, -112.3847)" d="M 102.56 112.77 C 103.12 112.33 102.64 111.47 101.97 111.7 C 95.72 113.8 88.56 113.21 82.8 109.96 C 81.55 109.25 78.42 106.97 75.15 106.72 C 73.08 106.56 71.23 108.17 71.37 110.24 C 71.46 111.64 72.28 112.92 73.32 113.86 C 76.12 116.39 80.34 117.46 84 117.89 C 88.57 118.43 93.43 117.68 97.71 115.74 C 99.68 114.85 101.31 113.76 102.56 112.77 Z" stroke-linecap="round"/>
</g>
		<g transform="matrix(1 0 0 1 -45.6995 -30.8616)">
<path style="stroke: none; stroke-width: 1; stroke-dasharray: none; stroke-linecap: butt; stroke-dashoffset: 0; stroke-linejoin: miter; stroke-miterlimit: 4; is-custom-font: none; font-file-url: none; fill: rgb(191,235,146); fill-rule: nonzero; opacity: 1;" transform=" translate(-18.3005, -33.1384)" d="M 18.64 43.28 C 22.31 41.79 25.72 39.38 27.72 35.96 C 29.72 32.55 30.1 28.04 28.06 24.65 C 26.02 21.26 21.34 19.5 17.8 21.27 C 15.17 22.59 14.45 25.1 15.75 28.07 C 16.81 30.49 18.66 30.91 18.3 34.06 C 17.84 38.12 12.82 41.6 10.44 42.6 C 8.42 43.44 4.9 45.99 9.29 45.68 C 12.38 45.48 15.78 44.44 18.64 43.28 Z" stroke-linecap="round"/>
</g>
		<g transform="matrix(1 0 0 1 -44.7364 35.9384)">
<path style="stroke: none; stroke-width: 1; stroke-dasharray: none; stroke-linecap: butt; stroke-dashoffset: 0; stroke-linejoin: miter; stroke-miterlimit: 4; is-custom-font: none; font-file-url: none; fill: rgb(185,232,97); fill-rule: nonzero; opacity: 1;" transform=" translate(-19.2636, -99.9384)" d="M 29.42 100.96 C 30.42 103.49 31.84 110.03 25.98 110.85 C 21.28 111.51 18.56 106.37 17.5 101.84 C 16.08 95.78 10.84 92.63 8.44 90.37 C 7.95 89.91 8.24 89.09 8.92 89.04 C 13.26 88.71 24.7 89.06 29.42 100.96 Z" stroke-linecap="round"/>
</g>
		<g transform="matrix(1 0 0 1 9.1348 -48.743)">
<path style="stroke: none; stroke-width: 1; stroke-dasharray: none; stroke-linecap: butt; stroke-dashoffset: 0; stroke-linejoin: miter; stroke-miterlimit: 4; is-custom-font: none; font-file-url: none; fill: rgb(191,235,146); fill-rule: nonzero; opacity: 1;" transform=" translate(-73.1349, -15.2569)" d="M 70.49 15.43 C 69.17 16.5 67.86 17.97 66.68 19.19 C 66.26 19.62 64.26 22.26 62.33 20.59 C 61.4 19.78 62.3 17.81 62.6 17.26 C 63.76 15.14 67.33 11.28 74.77 9.7 C 77.23 9.18 84.35 9.29 84.35 10 C 84.35 10.96 76.06 10.88 70.49 15.43 Z" stroke-linecap="round"/>
</g>
		<g transform="matrix(1 0 0 1 -44.235 -2.25)">
<path style="stroke: none; stroke-width: 1; stroke-dasharray: none; stroke-linecap: butt; stroke-dashoffset: 0; stroke-linejoin: miter; stroke-miterlimit: 4; is-custom-font: none; font-file-url: none; fill: rgb(150,229,3); fill-rule: nonzero; opacity: 1;" transform=" translate(-19.765, -61.75)" d="M 34.66 60.25 L 3.37 60.25 C 3.84 61.37 4.66 62.39 5.44 63.25 L 34.66 63.25 C 35.49 63.25 36.16 62.58 36.16 61.75 C 36.16 60.92 35.49 60.25 34.66 60.25 Z" stroke-linecap="round"/>
</g>
		<g transform="matrix(1 0 0 1 -39.455 7.195)">
<path style="stroke: none; stroke-width: 1; stroke-dasharray: none; stroke-linecap: butt; stroke-dashoffset: 0; stroke-linejoin: miter; stroke-miterlimit: 4; is-custom-font: none; font-file-url: none; fill: rgb(150,229,3); fill-rule: nonzero; opacity: 1;" transform=" translate(-24.545, -71.195)" d="M 43.42 69.11 L 6.63 69.11 C 5.63 70 3.63 70.82 3.17 73.28 L 43.42 73.28 C 44.8 73.28 45.92 72.15 45.92 70.77 C 45.92 69.39 44.8 69.11 43.42 69.11 Z" stroke-linecap="round"/>
</g>
</g>
</g>
</svg>